<?xml version="1.0" ?><svg id="Layer_1" style="enable-background:new 0 0 120 120;" version="1.1" viewBox="0 0 120 120" xml:space="preserve" xmlns="http://www.w3.org/2000/svg" xmlns:xlink="http://www.w3.org/1999/xlink"><style type="text/css">
	.st0{fill:#E9F6FF;}
	.st1{fill:#FFFFFF;}
	.st2{fill:#FF365D;}
	.st3{fill:#FFD03B;}
	.st4{fill:#E8B04B;}
	.st5{fill:#549CFF;}
</style><g><path class="st0" d="M91.3,12.6v86c0,2.4-1.9,4.3-4.3,4.3H27.6c-2.4,0-4.3-1.9-4.3-4.3v-86c0-2.4,1.9-4.3,4.3-4.3h59.3   C89.4,8.4,91.3,10.4,91.3,12.6z"/><path class="st1" d="M83.3,88.5V22.8c-3.6,0-6.4-2.9-6.4-6.4H37.7c0,3.6-2.9,6.4-6.4,6.4v65.7c3.6,0,6.4,2.9,6.4,6.4h39.1   C76.9,91.4,79.7,88.5,83.3,88.5z"/><g><polygon class="st2" points="86.5,86.5 78.3,90.6 70,86.5 59.9,106.8 66.2,106.2 69.5,111.7 78.3,94.2 87.1,111.7 90.4,106.2     96.7,106.8   "/><circle class="st3" cx="78.3" cy="86.8" r="13.4"/><circle class="st4" cx="78.3" cy="86.8" r="10.6"/></g><g><path class="st5" d="M57.2,64.8h-16c-0.6,0-1.1,0.5-1.1,1.1s0.5,1.1,1.1,1.1h16c0.6,0,1.1-0.5,1.1-1.1S57.9,64.8,57.2,64.8z"/><path class="st5" d="M73.3,59.4h-32c-0.6,0-1.1,0.5-1.1,1.1c0,0.6,0.5,1.1,1.1,1.1h32.1c0.6,0,1.1-0.5,1.1-1.1    C74.5,59.8,74,59.4,73.3,59.4z"/><path class="st5" d="M73.3,54.7h-32c-0.6,0-1.1,0.5-1.1,1.1c0,0.6,0.5,1.1,1.1,1.1h32.1c0.6,0,1.1-0.5,1.1-1.1    C74.5,55.2,74,54.7,73.3,54.7z"/><path class="st5" d="M40.2,50.4c0,0.6,0.5,1.1,1.1,1.1h32.1c0.6,0,1.1-0.5,1.1-1.1s-0.5-1.1-1.1-1.1H41.3    C40.7,49.3,40.2,49.8,40.2,50.4z"/><path class="st5" d="M65.3,36.8c0.6,0,1.1-0.5,1.1-1.1c0-0.6-0.4-1.1-1.1-1.1h-16c-0.6,0-1.1,0.5-1.1,1.1c0,0.6,0.5,1.1,1.1,1.1    H65.3z"/><path class="st5" d="M45.3,31.3h24.1c0.6,0,1.1-0.5,1.1-1.1c0-0.6-0.5-1.1-1.2-1.1h-24c-0.6,0-1.1,0.5-1.1,1.1    C44.1,30.8,44.6,31.3,45.3,31.3z"/></g></g></svg>