<?xml version="1.0" encoding="iso-8859-1"?>
<!-- Generator: Adobe Illustrator 19.0.0, SVG Export Plug-In . SVG Version: 6.00 Build 0)  -->
<svg version="1.1" id="Layer_1" xmlns="http://www.w3.org/2000/svg" xmlns:xlink="http://www.w3.org/1999/xlink" x="0px" y="0px"
	 viewBox="0 0 512 512" style="enable-background:new 0 0 512 512;" xml:space="preserve">
<circle style="fill:#E1EFFA;" cx="256" cy="256" r="256"/>
<path style="fill:#BCD4E8;" d="M508.552,297.772L387.732,176.973c-0.33-0.366-0.694-0.73-1.06-1.06
	c-1.318-1.096-3.036-1.756-4.902-1.756h-63.524l-23.404-23.406c-3.51-3.515-8.192-5.45-13.166-5.45h-51.346
	c-4.972,0-9.656,1.935-13.169,5.45c-3.512,3.51-5.445,8.159-5.445,13.166v10.24h-81.518c-4.204,0-7.68,3.471-7.68,7.718v80.858
	c0,3.331,2.156,6.216,5.12,7.24v75.633v13.381c0,1.789,0.617,3.441,1.644,4.754c0.036,0.041,0.077,0.113,0.113,0.148l1.062,1.06
	c0.036,0.036,0.108,0.077,0.143,0.113l146.038,146.038C394.419,501.691,489.69,412.639,508.552,297.772z"/>
<path style="fill:#5D6D7E;" d="M384.346,358.999c0,4.229-3.461,7.706-7.688,7.706H135.342c-4.227,0-7.69-3.474-7.69-7.706V224.658
	c0-4.239,3.464-7.708,7.69-7.708h241.316c4.227,0,7.688,3.469,7.688,7.708L384.346,358.999L384.346,358.999z"/>
<path style="fill:#283A4D;" d="M135.342,362.857c-2.115,0-3.84-1.743-3.84-3.858V224.658c0-2.125,1.728-3.853,3.84-3.853h241.316
	c2.115,0,3.843,1.728,3.843,3.853v134.344c0,2.115-1.728,3.858-3.843,3.858H135.342V362.857z"/>
<path style="fill:#E1EFFA;" d="M371.356,359.631h-7.775v-1.27h7.775V359.631z M355.804,359.631h-7.78v-1.27h7.78V359.631z
	 M340.239,359.631h-7.78v-1.27h7.78V359.631z M324.68,359.631h-7.775v-1.27h7.775V359.631z M309.13,359.631h-7.782v-1.27h7.782
	V359.631z M293.568,359.631h-7.79v-1.27h7.79V359.631z M278.003,359.631h-7.772v-1.27h7.772V359.631z M262.454,359.631h-7.782v-1.27
	h7.782V359.631z M246.892,359.631h-7.785v-1.27h7.785V359.631z M231.327,359.631h-7.772v-1.27h7.772V359.631z M215.772,359.631
	h-7.775v-1.27h7.775V359.631z M200.218,359.631h-7.785v-1.27h7.785V359.631z M184.655,359.631h-7.777v-1.27h7.777V359.631z
	 M169.103,359.631h-7.782v-1.27h7.782V359.631z M153.541,359.631h-7.785v-1.27h7.785V359.631z M137.976,359.631h-0.061
	c-1.769,0-3.2-1.426-3.2-3.21v-3.735h1.283v3.735c0,1.062,0.855,1.94,1.917,1.94L137.976,359.631z M377.283,355.397h-1.277v-7.759
	h1.277V355.397z M135.997,344.906h-1.283v-7.788h1.283V344.906z M377.283,339.855h-1.277v-7.78h1.277V339.855z M135.997,329.334
	h-1.283v-7.767h1.283V329.334z M377.283,324.285h-1.277v-7.775h1.277V324.285z M135.997,313.784h-1.283v-7.767h1.283V313.784z
	 M377.283,308.731h-1.277v-7.775h1.277V308.731z M135.997,298.23h-1.283v-7.79h1.283V298.23z M377.283,293.174h-1.277v-7.78h1.277
	V293.174z M135.997,282.673h-1.283v-7.78h1.283V282.673z M377.283,277.617h-1.277v-7.782h1.277V277.617z M135.997,267.103h-1.283
	v-7.767h1.283V267.103z M377.283,262.052h-1.277v-7.775h1.277V262.052z M135.997,251.553h-1.283v-7.79h1.283V251.553z
	 M377.283,246.492h-1.277v-7.78h1.277V246.492z M135.997,235.996h-1.283v-7.775h1.283V235.996z M377.283,230.94h-1.277v-3.72
	c0-1.065-0.865-1.928-1.925-1.928l-0.026-1.277h0.026c1.769,0,3.203,1.441,3.203,3.205L377.283,230.94L377.283,230.94z
	 M366.269,225.293h-7.782v-1.277h7.782V225.293z M350.707,225.293h-7.775v-1.277h7.775V225.293z M335.155,225.293h-7.772v-1.277
	h7.772V225.293z M319.596,225.293h-7.777v-1.277h7.777V225.293z M304.031,225.293h-7.772v-1.277h7.772V225.293z M288.479,225.293
	h-7.78v-1.277h7.78V225.293z M272.916,225.293h-7.78v-1.277h7.78V225.293z M257.354,225.293h-7.777v-1.277h7.777V225.293z
	 M241.807,225.293h-7.782v-1.277h7.782V225.293z M226.243,225.293h-7.775v-1.277h7.775V225.293z M210.68,225.293h-7.775v-1.277
	h7.775L210.68,225.293L210.68,225.293z M195.128,225.293h-7.78v-1.277h7.78V225.293z M179.574,225.293h-7.788v-1.277h7.788V225.293z
	 M164.004,225.293h-7.777v-1.277h7.777V225.293z M148.462,225.293h-7.788v-1.277h7.788V225.293z"/>
<path style="fill:#5D6D7E;" d="M389.484,262.735c0,4.227-3.464,7.698-7.698,7.698H130.217c-4.239,0-7.706-3.469-7.706-7.698v-80.868
	c0-4.227,3.466-7.703,7.706-7.703h251.569c4.234,0,7.698,3.476,7.698,7.703V262.735z"/>
<path style="fill:#34495E;" d="M130.217,266.578c-2.13,0-3.845-1.723-3.845-3.843v-80.868c0-2.122,1.715-3.848,3.845-3.848h251.569
	c2.12,0,3.84,1.728,3.84,3.848v80.865c0,2.12-1.72,3.843-3.84,3.843H130.217V266.578z"/>
<path style="fill:#E1EFFA;" d="M378.568,263.38h-7.675v-1.285h7.675V263.38z M363.208,263.38h-7.667v-1.285h7.667V263.38z
	 M347.848,263.38h-7.667v-1.285h7.667V263.38z M332.495,263.38h-7.675v-1.285h7.675V263.38z M317.13,263.38h-7.67v-1.285h7.67
	V263.38z M301.786,263.38H294.1v-1.285h7.685V263.38z M286.428,263.38h-7.688v-1.285h7.688V263.38z M271.073,263.38h-7.685v-1.285
	h7.685V263.38z M255.706,263.38h-7.677v-1.285h7.677V263.38z M240.353,263.38h-7.683v-1.285h7.683V263.38z M224.993,263.38h-7.672
	v-1.285h7.672V263.38z M209.633,263.38h-7.675v-1.285h7.677v1.285H209.633z M194.281,263.38h-7.677v-1.285h7.677V263.38z
	 M178.918,263.38h-7.677v-1.285h7.677V263.38z M163.561,263.38h-7.677v-1.285h7.677V263.38z M148.198,263.38h-7.672v-1.285h7.672
	V263.38z M132.851,263.38h-0.072c-1.761,0-3.205-1.439-3.205-3.215v-3.651h1.28v3.651c0,1.06,0.855,1.93,1.923,1.93L132.851,263.38z
	 M382.423,257.165h-1.28v-7.683h1.28V257.165z M130.854,248.842h-1.28v-7.683h1.28V248.842z M382.423,241.797h-1.28v-7.677h1.28
	V241.797z M130.854,233.475h-1.28v-7.677h1.28V233.475z M382.423,226.445h-1.28v-7.68h1.28V226.445z M130.854,218.122h-1.28v-7.677
	h1.28V218.122z M382.423,211.09h-1.28v-7.672h1.28V211.09z M130.854,202.77h-1.28v-7.677h1.28V202.77z M382.423,195.735h-1.28v-7.68
	h1.28V195.735z M130.854,187.41h-1.28v-2.972c0-1.772,1.441-3.208,3.205-3.208h0.681v1.277h-0.681c-1.068,0-1.923,0.87-1.923,1.93
	v2.972H130.854z M379.177,182.508h-7.675v-1.277h7.675V182.508z M363.825,182.508h-7.683v-1.277h7.683V182.508z M348.472,182.508
	h-7.69v-1.277h7.69V182.508z M333.115,182.508h-7.685v-1.277h7.685V182.508z M317.755,182.508h-7.685v-1.277h7.685V182.508z
	 M302.392,182.508h-7.688v-1.277h7.688V182.508z M287.035,182.508h-7.675v-1.277h7.675V182.508z M271.675,182.508h-7.667v-1.277
	h7.667V182.508z M256.317,182.508h-7.67v-1.277h7.67V182.508z M240.957,182.508h-7.67v-1.277h7.67V182.508z M225.603,182.508h-7.677
	v-1.277h7.677V182.508z M210.25,182.508h-7.683v-1.277h7.683V182.508z M194.895,182.508h-7.685v-1.277h7.685V182.508z
	 M179.533,182.508h-7.683v-1.277h7.683V182.508z M164.18,182.508h-7.683v-1.277h7.683V182.508z M148.82,182.508h-7.683v-1.277h7.683
	V182.508z"/>
<g>
	<path style="fill:#FFFFFF;" d="M213.335,251.699c-0.346-0.351-0.745-0.525-1.16-0.525H193.5c-0.461,0-0.863,0.172-1.208,0.525
		c-0.294,0.282-0.468,0.75-0.468,1.152v35.208c0,0.399,0.172,0.765,0.468,1.096c0.166,0.182,0.343,0.302,0.576,0.422
		c0.172,0.051,0.404,0.105,0.632,0.105h18.675c0.182,0,0.415-0.054,0.584-0.105c0.23-0.12,0.407-0.241,0.576-0.422
		c0.297-0.33,0.463-0.694,0.463-1.096v-35.208C213.798,252.452,213.632,251.981,213.335,251.699z M209.518,283.884h-13.407v-5.212
		h13.407V283.884z"/>
	<path style="fill:#E1EFFA;" d="M191.826,270.433v17.628c0,0.399,0.172,0.765,0.468,1.096v0.069
		c0.166,0.113,0.343,0.233,0.576,0.353c0.172,0.051,0.404,0.105,0.632,0.105h18.675c0.182,0,0.415-0.054,0.584-0.105
		c0.23-0.12,0.407-0.241,0.576-0.353v-0.069c0.297-0.33,0.463-0.694,0.463-1.096v-17.628H191.826z M209.518,283.884h-13.407v-5.212
		h13.407V283.884z"/>
	<path style="fill:#FFFFFF;" d="M319.703,251.699c-0.34-0.351-0.74-0.525-1.157-0.525h-18.673c-0.461,0-0.863,0.172-1.208,0.525
		c-0.294,0.282-0.468,0.75-0.468,1.152v35.208c0,0.399,0.172,0.765,0.468,1.096c0.164,0.182,0.346,0.302,0.579,0.422
		c0.169,0.051,0.399,0.105,0.63,0.105h18.673c0.184,0,0.417-0.054,0.584-0.105c0.236-0.12,0.41-0.241,0.576-0.422
		c0.3-0.33,0.468-0.694,0.468-1.096v-35.208C320.169,252.452,320.003,251.981,319.703,251.699z M315.886,283.884h-13.404v-5.212
		h13.404V283.884z"/>
	<path style="fill:#E1EFFA;" d="M298.196,270.433v17.628c0,0.399,0.172,0.765,0.468,1.096v0.069
		c0.164,0.113,0.346,0.233,0.579,0.353c0.169,0.051,0.399,0.105,0.63,0.105h18.673c0.184,0,0.417-0.054,0.584-0.105
		c0.236-0.12,0.41-0.241,0.576-0.353v-0.069c0.3-0.33,0.468-0.694,0.468-1.096v-17.628H298.196z M315.886,283.884h-13.404v-5.212
		h13.404V283.884z"/>
</g>
<path style="fill:#34495E;" d="M300.285,174.164h-11.558v-10.258c0-1.892-0.73-3.666-2.066-5.002
	c-1.339-1.336-3.103-2.068-4.992-2.068h-51.341c-1.889,0-3.648,0.73-4.997,2.068c-1.329,1.334-2.058,3.108-2.058,5.002v10.258
	h-11.556v-10.258c0-4.984,1.94-9.646,5.453-13.161c3.52-3.51,8.189-5.45,13.158-5.45h51.343c4.972,0,9.646,1.94,13.161,5.45
	c3.51,3.515,5.455,8.177,5.455,13.161v10.258H300.285z"/>
<g>
</g>
<g>
</g>
<g>
</g>
<g>
</g>
<g>
</g>
<g>
</g>
<g>
</g>
<g>
</g>
<g>
</g>
<g>
</g>
<g>
</g>
<g>
</g>
<g>
</g>
<g>
</g>
<g>
</g>
</svg>
